<?xml version="1.0" encoding="iso-8859-1"?>
<!-- Generator: Adobe Illustrator 19.0.0, SVG Export Plug-In . SVG Version: 6.00 Build 0)  -->
<svg version="1.1" id="Capa_1" xmlns="http://www.w3.org/2000/svg" xmlns:xlink="http://www.w3.org/1999/xlink" x="0px" y="0px"
	 viewBox="0 0 490.667 490.667" style="enable-background:new 0 0 490.667 490.667;" xml:space="preserve">
<path style="fill:#009688;" d="M245.333,0C109.839,0,0,109.839,0,245.333s109.839,245.333,245.333,245.333
	s245.333-109.839,245.333-245.333C490.514,109.903,380.764,0.153,245.333,0z"/>
<path style="fill:#FAFAFA;" d="M290.133,104.533c-19.139-18.289-49.277-18.289-68.416,0c-18.893,18.881-18.902,49.503-0.021,68.395
	c0.007,0.007,0.014,0.014,0.021,0.021l19.2,19.2H117.333C87.878,192.149,64,216.027,64,245.483
	c0,29.455,23.878,53.333,53.333,53.333h123.584l-19.2,19.2c-17.522,20.175-15.371,50.734,4.804,68.257
	c18.259,15.858,45.423,15.799,63.612-0.139l118.251-118.251c12.492-12.496,12.492-32.752,0-45.248L290.133,104.533z"/>
<path d="M245.333,490.667C109.839,490.667,0,380.827,0,245.333S109.839,0,245.333,0s245.333,109.839,245.333,245.333
	C490.514,380.764,380.764,490.514,245.333,490.667z M245.333,21.333c-123.712,0-224,100.288-224,224s100.288,224,224,224
	s224-100.288,224-224C469.192,121.68,368.987,21.474,245.333,21.333z"/>
<path d="M256,400.384c-26.71-0.059-48.315-21.76-48.256-48.47c0.028-12.769,5.105-25.008,14.122-34.048l19.2-19.2H117.333
	C87.878,298.667,64,274.789,64,245.333S87.878,192,117.333,192h123.584l-19.2-19.2c-18.893-18.881-18.902-49.503-0.021-68.395
	c0.007-0.007,0.014-0.014,0.021-0.021c19.139-18.289,49.277-18.289,68.416,0l118.251,118.251c12.492,12.496,12.492,32.752,0,45.248
	L290.133,386.133C281.115,395.251,268.824,400.382,256,400.384z M117.333,213.333c-17.673,0-32,14.327-32,32s14.327,32,32,32
	h149.333c5.891-0.011,10.675,4.757,10.686,10.648c0.005,2.84-1.123,5.565-3.134,7.571L236.8,332.8
	c-10.563,10.549-10.574,27.663-0.025,38.225c0.008,0.009,0.017,0.017,0.025,0.025c10.711,10.199,27.54,10.199,38.251,0
	L393.301,252.8c4.164-4.165,4.164-10.917,0-15.083L275.2,119.467c-10.711-10.199-27.54-10.199-38.251,0
	c-10.563,10.549-10.574,27.663-0.025,38.225c0.008,0.008,0.017,0.017,0.025,0.025l37.333,37.333
	c4.207,4.124,4.274,10.877,0.15,15.084c-2.042,2.083-4.849,3.239-7.766,3.198H117.333z"/>
<g>
</g>
<g>
</g>
<g>
</g>
<g>
</g>
<g>
</g>
<g>
</g>
<g>
</g>
<g>
</g>
<g>
</g>
<g>
</g>
<g>
</g>
<g>
</g>
<g>
</g>
<g>
</g>
<g>
</g>
</svg>
